<svg width="20" height="20" viewBox="0 0 20 20" fill="none" xmlns="http://www.w3.org/2000/svg">
<path d="M9.99978 2.50001C10.1098 2.50001 10.2189 2.50001 10.3273 2.50001C9.25673 3.49477 8.5686 4.83322 8.38252 6.2827C8.19644 7.73218 8.52416 9.20104 9.30872 10.434C10.0933 11.6669 11.2851 12.5859 12.6769 13.0312C14.0688 13.4766 15.5727 13.4201 16.9273 12.8717C16.4062 14.1254 15.5546 15.2142 14.4633 16.0219C13.3719 16.8296 12.0818 17.3259 10.7305 17.4578C9.37925 17.5898 8.0175 17.3525 6.79052 16.7712C5.56354 16.1899 4.51737 15.2864 3.7636 14.1572C3.00983 13.0279 2.57674 11.7152 2.51051 10.3592C2.44429 9.00306 2.74743 7.65443 3.38759 6.45711C4.02774 5.25979 4.98091 4.2587 6.14541 3.56063C7.30991 2.86255 8.64207 2.49367 9.99978 2.49335V2.50001Z" stroke="#A3A3A3" stroke-width="1.5" stroke-linecap="round" stroke-linejoin="round"/>
</svg>
