<svg width="18" height="23" viewBox="0 0 18 23" fill="none" xmlns="http://www.w3.org/2000/svg">
<path fill-rule="evenodd" clip-rule="evenodd" d="M13.4109 1.75195L13.4119 2.57747C16.1665 2.81522 17.9862 4.88231 17.9891 8.0523L18 17.3311C18.0039 20.7873 16.0322 22.9138 12.8718 22.9193L5.15188 22.9303C2.01119 22.9347 0.0148166 20.7576 0.0108673 17.2915L6.64975e-06 8.12165C-0.00394266 4.93074 1.75153 2.86915 4.50617 2.59068L4.50518 1.76516C4.5042 1.28086 4.83001 0.916527 5.26444 0.916527C5.69886 0.915426 6.02468 1.27865 6.02567 1.76296L6.02666 2.53344L11.8914 2.52464L11.8904 1.75415C11.8894 1.26985 12.2152 0.906621 12.6497 0.90552C13.0742 0.904419 13.4099 1.26765 13.4109 1.75195ZM1.52146 8.46175L16.4696 8.43974V8.0545C16.4272 5.68801 15.349 4.44644 13.4138 4.26152L13.4148 5.10905C13.4148 5.58235 13.0801 5.95768 12.6556 5.95768C12.2211 5.95878 11.8943 5.58455 11.8943 5.11125L11.8933 4.21969L6.02862 4.2285L6.0296 5.11896C6.0296 5.59336 5.70477 5.96759 5.27035 5.96759C4.83592 5.96869 4.50912 5.59556 4.50912 5.12116L4.50813 4.27363C2.58284 4.48606 1.51751 5.73204 1.52048 8.11944L1.52146 8.46175ZM12.2399 13.4644V13.4765C12.2498 13.9828 12.625 14.367 13.0801 14.3559C13.5244 14.3438 13.8789 13.9245 13.869 13.4182C13.8483 12.9339 13.4918 12.5387 13.0485 12.5398C12.5943 12.5508 12.2389 12.9581 12.2399 13.4644ZM13.0554 18.4065C12.6013 18.3955 12.235 17.9783 12.234 17.472C12.2241 16.9657 12.5884 16.5463 13.0426 16.5342H13.0525C13.5165 16.5342 13.8927 16.9514 13.8927 17.4687C13.8937 17.986 13.5185 18.4054 13.0554 18.4065ZM8.17211 13.482C8.19186 13.9883 8.56803 14.3835 9.0222 14.3614C9.4665 14.3383 9.82095 13.9201 9.80121 13.4138C9.79035 12.9184 9.42503 12.5332 8.98074 12.5343C8.52657 12.5563 8.17113 12.9757 8.17211 13.482ZM9.02614 18.357C8.57197 18.379 8.19678 17.9838 8.17605 17.4775C8.17605 16.9712 8.5305 16.5529 8.98467 16.5298C9.42897 16.5287 9.79527 16.914 9.80514 17.4082C9.82587 17.9156 9.47044 18.3338 9.02614 18.357ZM4.1043 13.5205C4.12405 14.0268 4.50022 14.4231 4.95439 14.4C5.39869 14.378 5.75314 13.9586 5.73241 13.4523C5.72253 12.957 5.35722 12.5717 4.91194 12.5728C4.45777 12.5948 4.10332 13.0142 4.1043 13.5205ZM4.95836 18.3625C4.50419 18.3856 4.12901 17.9893 4.10827 17.483C4.10728 16.9767 4.46272 16.5573 4.91689 16.5353C5.36119 16.5342 5.72749 16.9195 5.73736 17.4148C5.7581 17.9211 5.40365 18.3405 4.95836 18.3625Z" fill="white"/>
</svg>
