<svg width="22" height="22" viewBox="0 0 22 22" fill="none" xmlns="http://www.w3.org/2000/svg">
<path d="M7.5 1.66675V20.3334M13.3333 8.66675L15.6667 11.0001L13.3333 13.3334M1.66667 4.00008C1.66667 3.38124 1.9125 2.78775 2.35009 2.35017C2.78767 1.91258 3.38117 1.66675 4.00001 1.66675H18C18.6188 1.66675 19.2123 1.91258 19.6499 2.35017C20.0875 2.78775 20.3333 3.38124 20.3333 4.00008V18.0001C20.3333 18.6189 20.0875 19.2124 19.6499 19.65C19.2123 20.0876 18.6188 20.3334 18 20.3334H4.00001C3.38117 20.3334 2.78767 20.0876 2.35009 19.65C1.9125 19.2124 1.66667 18.6189 1.66667 18.0001V4.00008Z" stroke="#A3A3A3" stroke-width="1.5" stroke-linecap="round" stroke-linejoin="round"/>
</svg>
