<svg width="41" height="39" viewBox="0 0 41 39" fill="none" xmlns="http://www.w3.org/2000/svg">
<path d="M17.6587 18.2543C17.2955 18.2249 16.9316 18.3013 16.6144 18.4737C16.2972 18.6462 16.0417 18.9065 15.8812 19.2206C15.7207 19.5348 15.6627 19.8881 15.7149 20.2344C15.767 20.5807 15.9269 20.9038 16.1735 21.1615C16.4201 21.4191 16.742 21.5993 17.097 21.6784C17.4521 21.7575 17.8237 21.7318 18.1633 21.6048C18.503 21.4778 18.7947 21.2553 19.0004 20.9664C19.2061 20.6776 19.3162 20.3359 19.3162 19.9859C19.326 19.7677 19.2908 19.5498 19.2127 19.3447C19.1347 19.1395 19.0153 18.9512 18.8613 18.7904C18.7074 18.6295 18.5219 18.4994 18.3156 18.4074C18.1092 18.3155 17.886 18.2635 17.6587 18.2543ZM23.59 18.2543C23.2268 18.2249 22.8628 18.3013 22.5456 18.4737C22.2285 18.6462 21.9729 18.9065 21.8124 19.2206C21.6519 19.5348 21.594 19.8881 21.6461 20.2344C21.6983 20.5807 21.8581 20.9038 22.1047 21.1615C22.3513 21.4191 22.6732 21.5993 23.0283 21.6784C23.3833 21.7575 23.755 21.7318 24.0946 21.6048C24.4342 21.4778 24.726 21.2553 24.9317 20.9664C25.1374 20.6776 25.2474 20.3359 25.2475 19.9859C25.2572 19.7677 25.222 19.5498 25.144 19.3447C25.0659 19.1395 24.9465 18.9512 24.7926 18.7904C24.6386 18.6295 24.4532 18.4994 24.2468 18.4074C24.0405 18.3155 23.8173 18.2635 23.59 18.2543Z" fill="#999999"/>
<path d="M31.4875 5.16602H9.71249C9.27393 5.16696 8.83986 5.25084 8.43508 5.41286C8.0303 5.57489 7.66274 5.81188 7.35339 6.11031C7.04403 6.40874 6.79896 6.76275 6.63215 7.15212C6.46535 7.54149 6.38009 7.9586 6.38124 8.37962V29.4708C6.38009 29.8918 6.46535 30.3089 6.63215 30.6983C6.79896 31.0877 7.04403 31.4417 7.35339 31.7401C7.66274 32.0385 8.0303 32.2755 8.43508 32.4376C8.83986 32.5996 9.27393 32.6835 9.71249 32.6844H28.14L27.2787 29.7984L29.3587 31.6548L31.325 33.402L34.8187 36.366V8.37962C34.8199 7.9586 34.7346 7.54149 34.5678 7.15212C34.401 6.76275 34.1559 6.40874 33.8466 6.11031C33.5372 5.81188 33.1697 5.57489 32.7649 5.41286C32.3601 5.25084 31.926 5.16696 31.4875 5.16602ZM25.215 25.5396C25.215 25.5396 24.63 24.8688 24.1425 24.276C25.3204 24.0098 26.3622 23.3522 27.0837 22.4196C26.499 22.7932 25.8721 23.1019 25.215 23.34C24.459 23.6498 23.6684 23.8749 22.8587 24.0108C21.467 24.2568 20.0397 24.2515 18.65 23.9952C17.8341 23.842 17.0345 23.6174 16.2612 23.3244C15.8536 23.1739 15.4573 22.9967 15.075 22.794C15.0262 22.7628 14.9775 22.7472 14.9287 22.716C14.9043 22.7043 14.8823 22.6885 14.8637 22.6692C14.7079 22.5877 14.556 22.4992 14.4087 22.404C15.1041 23.3171 16.11 23.9682 17.2525 24.2448C16.765 24.8376 16.1637 25.5396 16.1637 25.5396C15.1985 25.5646 14.2416 25.3614 13.3773 24.9479C12.5131 24.5344 11.7679 23.9233 11.2075 23.1684C11.2602 20.0058 12.0604 16.8961 13.5475 14.0736C14.8562 13.0869 16.4517 12.5145 18.1137 12.4356L18.2762 12.6228C16.7126 12.9943 15.2534 13.6921 14.0025 14.6664C14.0025 14.6664 14.36 14.4792 14.9612 14.214C16.1293 13.7021 17.3742 13.3705 18.65 13.2312C18.741 13.2131 18.8334 13.2027 18.9262 13.2C20.0152 13.0638 21.1172 13.0533 22.2087 13.1688C23.9253 13.357 25.5869 13.8658 27.1 14.6664C25.9125 13.7385 24.5334 13.0632 23.0537 12.6852L23.2812 12.4356C24.9433 12.5145 26.5388 13.0869 27.8475 14.0736C29.3346 16.8961 30.1347 20.0058 30.1875 23.1684C29.6225 23.9226 28.8742 24.5328 28.0076 24.9461C27.141 25.3593 26.1823 25.5631 25.215 25.5396Z" fill="#999999"/>
</svg>
