<svg width="39" height="39" viewBox="0 0 39 39" fill="none" xmlns="http://www.w3.org/2000/svg">
<path d="M31.9733 5.16602H7.49331C6.29331 5.16602 5.33331 6.12602 5.33331 7.20602V31.806C5.33331 32.886 6.29331 33.846 7.49331 33.846H31.9733C33.1733 33.846 34.1333 32.886 34.1333 31.806V7.20602C34.1333 6.12602 33.1733 5.16602 31.9733 5.16602ZM13.8533 29.646H9.65331V15.966H13.8533V29.646ZM11.8133 14.046C10.4933 14.046 9.29331 12.966 9.29331 11.526C9.29331 10.086 10.3733 9.00602 11.8133 9.00602C13.1333 9.00602 14.3333 10.086 14.3333 11.526C14.3333 12.966 13.1333 14.046 11.8133 14.046ZM29.9333 29.526H25.7333V22.806C25.7333 21.246 25.7333 19.086 23.4533 19.086C21.1733 19.086 20.9333 20.886 20.9333 22.566V29.406H16.7333V15.966H20.6933V17.766H20.8133C21.4133 16.686 22.8533 15.486 24.8933 15.486C29.2133 15.486 30.0533 18.366 30.0533 22.086V29.526H29.9333Z" fill="#999999"/>
</svg>
